# xmcd CD database file
#
# Track frame offsets:
#	150
#	14107
#	27524
#	39651
#	52026
#	64589
#	80385
#	100520
#	109617
#	119196
#	134661
#	147606
#	169652
#	182867
#
# Disc length: 2550 seconds
#
# Revision: 0
# Processed by: cddbd v1.5.2PL0 Copyright (c) Steve Scherf et al.
# Submitted via: CDex 1.70beta2
#
DISCID=d109f40e
DTITLE=Hooper, Gary - Cdn. - Cty - House On the Hill
DYEAR=1900
DGENRE=Country
TTITLE0=I've Had A Beautiful Time
TTITLE1=Your Grand Slam
TTITLE2=Senor Senorita
TTITLE3=East Coast Blues
TTITLE4=Bubbles In the Wine
TTITLE5=More Than Yesterday
TTITLE6=All She Got Was Me
TTITLE7=Where the Blue Waters Foam
TTITLE8=Cried Like A Child
TTITLE9=I Wouldn't Take A Million Dollars For A Single Maple Leaf
TTITLE10=Madiens Prayer
TTITLE11=House On the Hill
TTITLE12=Wild Rockies Willie
TTITLE13=Rock With Mu Apple
EXTD=
EXTT0=
EXTT1=
EXTT2=
EXTT3=
EXTT4=
EXTT5=
EXTT6=
EXTT7=
EXTT8=
EXTT9=
EXTT10=
EXTT11=
EXTT12=
EXTT13=
PLAYORDER=
